<mxfile host="app.diagrams.net" modified="2023-03-06T21:58:06.967Z" agent="5.0 (X11; Ubuntu)" etag="zLOSGOYwc21e2khHU6Ya" version="21.0.2" type="github">
  <diagram name="Page-1" id="e7e014a7-5840-1c2e-5031-d8a46d1fe8dd">
    <mxGraphModel dx="1600" dy="795" grid="1" gridSize="10" guides="1" tooltips="1" connect="1" arrows="1" fold="1" page="1" pageScale="1" pageWidth="1169" pageHeight="826" background="none" math="0" shadow="0">
      <root>
        <mxCell id="0" />
        <mxCell id="1" parent="0" />
        <mxCell id="XuzLmO2zGMRh6XVY9BUa-39" style="edgeStyle=orthogonalEdgeStyle;rounded=0;orthogonalLoop=1;jettySize=auto;html=1;" edge="1" parent="1" source="XuzLmO2zGMRh6XVY9BUa-46" target="XuzLmO2zGMRh6XVY9BUa-58">
          <mxGeometry relative="1" as="geometry" />
        </mxCell>
        <mxCell id="XuzLmO2zGMRh6XVY9BUa-40" value="" style="edgeStyle=orthogonalEdgeStyle;rounded=0;orthogonalLoop=1;jettySize=auto;html=1;" edge="1" parent="1" source="XuzLmO2zGMRh6XVY9BUa-41" target="XuzLmO2zGMRh6XVY9BUa-43">
          <mxGeometry relative="1" as="geometry" />
        </mxCell>
        <mxCell id="XuzLmO2zGMRh6XVY9BUa-41" value="" style="ellipse;shape=startState;fillColor=#000000;strokeColor=#ff0000;" vertex="1" parent="1">
          <mxGeometry x="264.5" y="168" width="30" height="30" as="geometry" />
        </mxCell>
        <mxCell id="XuzLmO2zGMRh6XVY9BUa-42" value="" style="edgeStyle=orthogonalEdgeStyle;rounded=0;orthogonalLoop=1;jettySize=auto;html=1;" edge="1" parent="1" source="XuzLmO2zGMRh6XVY9BUa-43" target="XuzLmO2zGMRh6XVY9BUa-45">
          <mxGeometry relative="1" as="geometry" />
        </mxCell>
        <mxCell id="XuzLmO2zGMRh6XVY9BUa-43" value="Signup" style="" vertex="1" parent="1">
          <mxGeometry x="224.5" y="238" width="110" height="50" as="geometry" />
        </mxCell>
        <mxCell id="XuzLmO2zGMRh6XVY9BUa-44" value="" style="edgeStyle=orthogonalEdgeStyle;rounded=0;orthogonalLoop=1;jettySize=auto;html=1;" edge="1" parent="1" source="XuzLmO2zGMRh6XVY9BUa-45" target="XuzLmO2zGMRh6XVY9BUa-46">
          <mxGeometry relative="1" as="geometry" />
        </mxCell>
        <mxCell id="XuzLmO2zGMRh6XVY9BUa-45" value="Login" style="" vertex="1" parent="1">
          <mxGeometry x="224.5" y="348" width="110" height="50" as="geometry" />
        </mxCell>
        <mxCell id="XuzLmO2zGMRh6XVY9BUa-46" value="Verify Login" style="" vertex="1" parent="1">
          <mxGeometry x="224.5" y="453" width="110" height="50" as="geometry" />
        </mxCell>
        <mxCell id="XuzLmO2zGMRh6XVY9BUa-47" value="" style="ellipse;shape=endState;fillColor=#000000;strokeColor=#ff0000" vertex="1" parent="1">
          <mxGeometry x="854.5" y="628" width="30" height="30" as="geometry" />
        </mxCell>
        <mxCell id="XuzLmO2zGMRh6XVY9BUa-48" value="" style="endArrow=open;strokeColor=#000000;endFill=1;rounded=0" edge="1" parent="1" source="XuzLmO2zGMRh6XVY9BUa-68" target="XuzLmO2zGMRh6XVY9BUa-47">
          <mxGeometry relative="1" as="geometry" />
        </mxCell>
        <mxCell id="XuzLmO2zGMRh6XVY9BUa-49" value="" style="edgeStyle=orthogonalEdgeStyle;rounded=0;orthogonalLoop=1;jettySize=auto;html=1;" edge="1" parent="1" source="XuzLmO2zGMRh6XVY9BUa-50" target="XuzLmO2zGMRh6XVY9BUa-53">
          <mxGeometry relative="1" as="geometry" />
        </mxCell>
        <mxCell id="XuzLmO2zGMRh6XVY9BUa-50" value="" style="ellipse;shape=startState;fillColor=#000000;strokeColor=#ff0000;" vertex="1" parent="1">
          <mxGeometry x="504.5" y="168" width="30" height="30" as="geometry" />
        </mxCell>
        <mxCell id="XuzLmO2zGMRh6XVY9BUa-51" value="" style="edgeStyle=orthogonalEdgeStyle;rounded=0;orthogonalLoop=1;jettySize=auto;html=1;" edge="1" parent="1" source="XuzLmO2zGMRh6XVY9BUa-53" target="XuzLmO2zGMRh6XVY9BUa-56">
          <mxGeometry relative="1" as="geometry" />
        </mxCell>
        <mxCell id="XuzLmO2zGMRh6XVY9BUa-52" value="" style="edgeStyle=orthogonalEdgeStyle;rounded=0;orthogonalLoop=1;jettySize=auto;html=1;strokeColor=#FF0000;" edge="1" parent="1" source="XuzLmO2zGMRh6XVY9BUa-53" target="XuzLmO2zGMRh6XVY9BUa-62">
          <mxGeometry relative="1" as="geometry" />
        </mxCell>
        <mxCell id="XuzLmO2zGMRh6XVY9BUa-53" value="Login" style="" vertex="1" parent="1">
          <mxGeometry x="464.5" y="238" width="110" height="50" as="geometry" />
        </mxCell>
        <mxCell id="XuzLmO2zGMRh6XVY9BUa-54" value="" style="edgeStyle=orthogonalEdgeStyle;rounded=0;orthogonalLoop=1;jettySize=auto;html=1;" edge="1" parent="1" source="XuzLmO2zGMRh6XVY9BUa-56" target="XuzLmO2zGMRh6XVY9BUa-58">
          <mxGeometry relative="1" as="geometry" />
        </mxCell>
        <mxCell id="XuzLmO2zGMRh6XVY9BUa-55" value="" style="edgeStyle=orthogonalEdgeStyle;rounded=0;orthogonalLoop=1;jettySize=auto;html=1;strokeColor=#FF0000;" edge="1" parent="1" source="XuzLmO2zGMRh6XVY9BUa-56" target="XuzLmO2zGMRh6XVY9BUa-60">
          <mxGeometry relative="1" as="geometry" />
        </mxCell>
        <mxCell id="XuzLmO2zGMRh6XVY9BUa-56" value="Verify Login" style="" vertex="1" parent="1">
          <mxGeometry x="464.5" y="348" width="110" height="50" as="geometry" />
        </mxCell>
        <mxCell id="XuzLmO2zGMRh6XVY9BUa-57" value="" style="edgeStyle=orthogonalEdgeStyle;rounded=0;orthogonalLoop=1;jettySize=auto;html=1;" edge="1" parent="1" source="XuzLmO2zGMRh6XVY9BUa-58" target="XuzLmO2zGMRh6XVY9BUa-65">
          <mxGeometry relative="1" as="geometry" />
        </mxCell>
        <mxCell id="XuzLmO2zGMRh6XVY9BUa-58" value="&#xa;Add Item to Cart&#xa;" style="" vertex="1" parent="1">
          <mxGeometry x="464.5" y="453" width="110" height="50" as="geometry" />
        </mxCell>
        <mxCell id="XuzLmO2zGMRh6XVY9BUa-59" value="NO" style="edgeStyle=orthogonalEdgeStyle;rounded=0;orthogonalLoop=1;jettySize=auto;html=1;exitX=0.5;exitY=0;exitDx=0;exitDy=0;entryX=0.85;entryY=0;entryDx=0;entryDy=0;entryPerimeter=0;strokeColor=#FF0000;" edge="1" parent="1" source="XuzLmO2zGMRh6XVY9BUa-60" target="XuzLmO2zGMRh6XVY9BUa-56">
          <mxGeometry relative="1" as="geometry" />
        </mxCell>
        <mxCell id="XuzLmO2zGMRh6XVY9BUa-60" value="&lt;div&gt;Failed &lt;br&gt;&lt;/div&gt;&lt;div&gt;Verification&lt;br&gt;&lt;/div&gt;" style="rhombus;whiteSpace=wrap;html=1;fillColor=rgb(255, 255, 255);strokeColor=rgb(0, 0, 0);fontColor=rgb(0, 0, 0);" vertex="1" parent="1">
          <mxGeometry x="630" y="333" width="80" height="80" as="geometry" />
        </mxCell>
        <mxCell id="XuzLmO2zGMRh6XVY9BUa-61" value="NO" style="edgeStyle=orthogonalEdgeStyle;rounded=0;orthogonalLoop=1;jettySize=auto;html=1;exitX=0.5;exitY=0;exitDx=0;exitDy=0;entryX=0.795;entryY=-0.02;entryDx=0;entryDy=0;entryPerimeter=0;strokeColor=#FF0000;" edge="1" parent="1" source="XuzLmO2zGMRh6XVY9BUa-62" target="XuzLmO2zGMRh6XVY9BUa-53">
          <mxGeometry relative="1" as="geometry" />
        </mxCell>
        <mxCell id="XuzLmO2zGMRh6XVY9BUa-62" value="&lt;div&gt;Failed&lt;/div&gt;&lt;div&gt;Login&lt;br&gt;&lt;/div&gt;" style="rhombus;whiteSpace=wrap;html=1;fillColor=rgb(255, 255, 255);strokeColor=rgb(0, 0, 0);fontColor=rgb(0, 0, 0);" vertex="1" parent="1">
          <mxGeometry x="630" y="223" width="80" height="80" as="geometry" />
        </mxCell>
        <mxCell id="XuzLmO2zGMRh6XVY9BUa-63" value="NO" style="edgeStyle=orthogonalEdgeStyle;rounded=0;orthogonalLoop=1;jettySize=auto;html=1;exitX=0.5;exitY=0;exitDx=0;exitDy=0;entryX=0.723;entryY=0.02;entryDx=0;entryDy=0;entryPerimeter=0;strokeColor=#FF0000;" edge="1" parent="1" source="XuzLmO2zGMRh6XVY9BUa-65" target="XuzLmO2zGMRh6XVY9BUa-58">
          <mxGeometry relative="1" as="geometry">
            <Array as="points">
              <mxPoint x="670.5" y="418" />
              <mxPoint x="544.5" y="418" />
            </Array>
          </mxGeometry>
        </mxCell>
        <mxCell id="XuzLmO2zGMRh6XVY9BUa-64" value="" style="edgeStyle=orthogonalEdgeStyle;rounded=0;orthogonalLoop=1;jettySize=auto;html=1;strokeColor=#00CC00;" edge="1" parent="1" source="XuzLmO2zGMRh6XVY9BUa-65" target="XuzLmO2zGMRh6XVY9BUa-66">
          <mxGeometry relative="1" as="geometry" />
        </mxCell>
        <mxCell id="XuzLmO2zGMRh6XVY9BUa-65" value="&lt;div&gt;Continue&lt;/div&gt;&lt;div&gt;to&lt;/div&gt;&lt;div&gt;checkout&lt;br&gt;&lt;/div&gt;" style="rhombus;whiteSpace=wrap;html=1;fillColor=rgb(255, 255, 255);" vertex="1" parent="1">
          <mxGeometry x="630" y="438" width="80" height="80" as="geometry" />
        </mxCell>
        <mxCell id="XuzLmO2zGMRh6XVY9BUa-66" value="Checkout" style="whiteSpace=wrap;html=1;fillColor=rgb(255, 255, 255);" vertex="1" parent="1">
          <mxGeometry x="636.62" y="550" width="66.75" height="30" as="geometry" />
        </mxCell>
        <mxCell id="XuzLmO2zGMRh6XVY9BUa-67" style="edgeStyle=orthogonalEdgeStyle;rounded=0;orthogonalLoop=1;jettySize=auto;html=1;" edge="1" parent="1" source="XuzLmO2zGMRh6XVY9BUa-66" target="XuzLmO2zGMRh6XVY9BUa-68">
          <mxGeometry relative="1" as="geometry">
            <mxPoint x="820" y="570" as="targetPoint" />
          </mxGeometry>
        </mxCell>
        <mxCell id="XuzLmO2zGMRh6XVY9BUa-68" value="Confirm checkout" style="" vertex="1" parent="1">
          <mxGeometry x="814.5" y="540" width="110" height="50" as="geometry" />
        </mxCell>
      </root>
    </mxGraphModel>
  </diagram>
</mxfile>
